# xmcd
# 
# Track frame offsets:
#     150
#     11055
#     27265
#     42485
#     57362
#     71885
#     92070
#     106140
#     119410
#     132832
#     152665
#     165460
#     188490
#     203372
#     231610
#     244200
# 
# Disc length: 3582
# 
# Revision: 0
# Processed by: cddbd v1.5.2PL0 Copyright (c) Steve Scherf et al.
# Submitted via: fre:ac v1.0.31
# 
DISCID=d70dfc10
DTITLE=友川かずき - 初期傑作集
DYEAR=1989
DGENRE=Folk
TTITLE0=生きてるって言ってみろ
TTITLE1=あめらんくゆらん
TTITLE2=似合った青春
TTITLE3=記憶
TTITLE4=木端微塵
TTITLE5=おじっちゃ
TTITLE6=23才の抵抗
TTITLE7=殺されたくないなら殺せ
TTITLE8=春だなぁ～節
TTITLE9=魂
TTITLE10=トドを殺すな
TTITLE11=死にぞこないの唄
TTITLE12=優美子の春
TTITLE13=歩道橋
TTITLE14=だがづく
TTITLE15=明るい夜
EXTD=
EXTT0=
EXTT1=
EXTT2=
EXTT3=
EXTT4=
EXTT5=
EXTT6=
EXTT7=
EXTT8=
EXTT9=
EXTT10=
EXTT11=
EXTT12=
EXTT13=
EXTT14=
EXTT15=
PLAYORDER=
